<svg xmlns="http://www.w3.org/2000/svg" viewBox="0 0 96 82" shape-rendering="crispEdges">
  <rect width="96" height="82" fill="none"/>
  <rect x="32" y="4" width="10" height="6" fill="#7a431f"/>
  <rect x="42" y="4" width="8" height="6" fill="#ff4f2d"/>
  <rect x="50" y="4" width="6" height="6" fill="#d9352a"/>
  <rect x="26" y="10" width="10" height="10" fill="#7a431f"/>
  <rect x="36" y="10" width="16" height="12" fill="#ffdca7"/>
  <rect x="52" y="10" width="10" height="10" fill="#edb76d"/>
  <rect x="62" y="10" width="12" height="10" fill="#7a431f"/>
  <rect x="18" y="20" width="10" height="14" fill="#7a431f"/>
  <rect x="28" y="20" width="38" height="28" fill="#ffe7bb"/>
  <rect x="66" y="20" width="18" height="18" fill="#ffe3b2"/>
  <rect x="84" y="24" width="8" height="12" fill="#7a431f"/>
  <rect x="12" y="30" width="8" height="18" fill="#7a431f"/>
  <rect x="20" y="30" width="56" height="28" fill="#ffe7bb"/>
  <rect x="76" y="34" width="12" height="16" fill="#f7d49b"/>
  <rect x="8" y="40" width="8" height="22" fill="#7a431f"/>
  <rect x="16" y="40" width="60" height="24" fill="#ffe7bb"/>
  <rect x="34" y="42" width="8" height="8" fill="#f1c783"/>
  <rect x="42" y="50" width="8" height="8" fill="#f1c783"/>
  <rect x="54" y="44" width="10" height="10" fill="#7a431f"/>
  <rect x="64" y="48" width="8" height="8" fill="#7a431f"/>
  <rect x="0" y="46" width="8" height="18" fill="#7a431f"/>
  <rect x="8" y="46" width="12" height="22" fill="#d9a065"/>
  <rect x="20" y="46" width="54" height="24" fill="#ffe7bb"/>
  <rect x="74" y="48" width="14" height="18" fill="#ffe7bb"/>
  <rect x="88" y="50" width="8" height="14" fill="#7a431f"/>
  <rect x="14" y="18" width="18" height="10" fill="#f4ca82"/>
  <rect x="12" y="20" width="2" height="8" fill="#7a431f"/>
  <rect x="32" y="18" width="6" height="18" fill="#7a431f"/>
  <rect x="44" y="20" width="4" height="20" fill="#7a431f"/>
  <rect x="18" y="58" width="62" height="8" fill="#ffe0ae"/>
  <rect x="12" y="66" width="62" height="10" fill="#7a431f"/>
  <rect x="6" y="66" width="6" height="10" fill="#d69756"/>
  <rect x="74" y="66" width="6" height="10" fill="#d69756"/>
  <rect x="16" y="72" width="12" height="8" fill="#ffcf2f"/>
  <rect x="28" y="72" width="8" height="8" fill="#d89f44"/>
  <rect x="52" y="72" width="8" height="8" fill="#d89f44"/>
  <rect x="60" y="72" width="12" height="8" fill="#ffcf2f"/>
  <rect x="10" y="20" width="14" height="4" fill="#ffd42b"/>
  <rect x="24" y="18" width="2" height="8" fill="#ffd42b"/>
  <rect x="46" y="18" width="4" height="4" fill="#2b1b14"/>
</svg>
