<svg xmlns="http://www.w3.org/2000/svg" viewBox="0 0 72 96" shape-rendering="crispEdges">
  <rect width="72" height="96" fill="none"/>
  <rect x="10" y="40" width="16" height="34" fill="#e0a0b1"/>
  <rect x="12" y="38" width="12" height="4" fill="#8d5226"/>
  <rect x="8" y="42" width="4" height="24" fill="#8d5226"/>
  <rect x="24" y="42" width="4" height="26" fill="#8d5226"/>
  <rect x="12" y="66" width="12" height="4" fill="#8d5226"/>
  <rect x="28" y="22" width="28" height="8" fill="#f7dfb2"/>
  <rect x="24" y="30" width="36" height="12" fill="#f9e3ba"/>
  <rect x="20" y="42" width="44" height="18" fill="#f6d6a0"/>
  <rect x="22" y="60" width="38" height="14" fill="#edc488"/>
  <rect x="30" y="74" width="22" height="6" fill="#d79b5d"/>
  <rect x="26" y="18" width="4" height="8" fill="#8d5226"/>
  <rect x="54" y="18" width="4" height="10" fill="#8d5226"/>
  <rect x="20" y="32" width="4" height="32" fill="#8d5226"/>
  <rect x="60" y="32" width="4" height="28" fill="#8d5226"/>
  <rect x="24" y="76" width="6" height="4" fill="#8d5226"/>
  <rect x="52" y="76" width="6" height="4" fill="#8d5226"/>
  <rect x="36" y="14" width="14" height="4" fill="#f9e3ba"/>
  <rect x="34" y="10" width="16" height="4" fill="#8d5226"/>
  <rect x="24" y="12" width="10" height="8" fill="#fbe8c8"/>
  <rect x="20" y="8" width="8" height="8" fill="#8d5226"/>
  <rect x="26" y="4" width="12" height="8" fill="#fff7e6"/>
  <rect x="48" y="10" width="8" height="8" fill="#8d5226"/>
  <rect x="52" y="4" width="10" height="10" fill="#fff7e6"/>
</svg>
